<svg xmlns="http://www.w3.org/2000/svg" viewBox="0 0 1200 675" width="1200" height="675">
<rect width="1200" height="675" fill="#0b1020"/>
<line x1="80" y1="95" x2="80" y2="615" stroke="#263246" stroke-width="1" opacity="0.35"/>
<line x1="160" y1="95" x2="160" y2="615" stroke="#263246" stroke-width="1" opacity="0.35"/>
<line x1="240" y1="95" x2="240" y2="615" stroke="#263246" stroke-width="1" opacity="0.35"/>
<line x1="320" y1="95" x2="320" y2="615" stroke="#263246" stroke-width="1" opacity="0.35"/>
<line x1="400" y1="95" x2="400" y2="615" stroke="#263246" stroke-width="1" opacity="0.35"/>
<line x1="480" y1="95" x2="480" y2="615" stroke="#263246" stroke-width="1" opacity="0.35"/>
<line x1="560" y1="95" x2="560" y2="615" stroke="#263246" stroke-width="1" opacity="0.35"/>
<line x1="640" y1="95" x2="640" y2="615" stroke="#263246" stroke-width="1" opacity="0.35"/>
<line x1="720" y1="95" x2="720" y2="615" stroke="#263246" stroke-width="1" opacity="0.35"/>
<line x1="800" y1="95" x2="800" y2="615" stroke="#263246" stroke-width="1" opacity="0.35"/>
<line x1="880" y1="95" x2="880" y2="615" stroke="#263246" stroke-width="1" opacity="0.35"/>
<line x1="960" y1="95" x2="960" y2="615" stroke="#263246" stroke-width="1" opacity="0.35"/>
<line x1="1040" y1="95" x2="1040" y2="615" stroke="#263246" stroke-width="1" opacity="0.35"/>
<line x1="60" y1="120" x2="1140" y2="120" stroke="#263246" stroke-width="1" opacity="0.35"/>
<line x1="60" y1="180" x2="1140" y2="180" stroke="#263246" stroke-width="1" opacity="0.35"/>
<line x1="60" y1="240" x2="1140" y2="240" stroke="#263246" stroke-width="1" opacity="0.35"/>
<line x1="60" y1="300" x2="1140" y2="300" stroke="#263246" stroke-width="1" opacity="0.35"/>
<line x1="60" y1="360" x2="1140" y2="360" stroke="#263246" stroke-width="1" opacity="0.35"/>
<line x1="60" y1="420" x2="1140" y2="420" stroke="#263246" stroke-width="1" opacity="0.35"/>
<line x1="60" y1="480" x2="1140" y2="480" stroke="#263246" stroke-width="1" opacity="0.35"/>
<line x1="60" y1="540" x2="1140" y2="540" stroke="#263246" stroke-width="1" opacity="0.35"/>
<line x1="60" y1="600" x2="1140" y2="600" stroke="#263246" stroke-width="1" opacity="0.35"/>
<text x="50" y="55" fill="#18f57a" font-family="Arial, sans-serif" font-size="28" font-weight="700">Level 56 — Cara Membaca CISD / Change in State of Delivery di Chart</text>
<text x="50" y="86" fill="#9ca3af" font-family="Arial, sans-serif" font-size="16" font-weight="500">Amy Trading Quest • Advanced ICT / XAUUSD</text>
<path d="M 110,480 L 190,450 L 270,510 L 350,390 L 430,420 L 510,310 L 590,335 L 670,240 L 750,285 L 830,190 L 910,230 L 990,150" stroke="#18f57a" stroke-width="5" fill="none"/>
<line x1="190" y1="405" x2="190" y2="495" stroke="#22d3ee" stroke-width="3"/>
<rect x="180" y="425" width="20" height="50" fill="#ff4d4d" opacity="0.9"/>
<line x1="350" y1="345" x2="350" y2="435" stroke="#22d3ee" stroke-width="3"/>
<rect x="340" y="365" width="20" height="50" fill="#18f57a" opacity="0.9"/>
<line x1="510" y1="265" x2="510" y2="355" stroke="#22d3ee" stroke-width="3"/>
<rect x="500" y="285" width="20" height="50" fill="#ff4d4d" opacity="0.9"/>
<line x1="670" y1="195" x2="670" y2="285" stroke="#22d3ee" stroke-width="3"/>
<rect x="660" y="215" width="20" height="50" fill="#18f57a" opacity="0.9"/>
<line x1="830" y1="145" x2="830" y2="235" stroke="#22d3ee" stroke-width="3"/>
<rect x="820" y="165" width="20" height="50" fill="#ff4d4d" opacity="0.9"/>
<line x1="990" y1="105" x2="990" y2="195" stroke="#22d3ee" stroke-width="3"/>
<rect x="980" y="125" width="20" height="50" fill="#18f57a" opacity="0.9"/>
<line x1="80" y1="170" x2="1080" y2="170" stroke="#facc15" stroke-width="3" stroke-dasharray="8 8"/>
<text x="930" y="155" fill="#facc15" font-family="Arial, sans-serif" font-size="20" font-weight="700">Buy-side liquidity</text>
<line x1="80" y1="510" x2="1080" y2="510" stroke="#ff4d4d" stroke-width="3" stroke-dasharray="8 8"/>
<text x="90" y="535" fill="#ff4d4d" font-family="Arial, sans-serif" font-size="20" font-weight="700">Sell-side liquidity</text>
<text x="120" y="610" fill="#e5e7eb" font-family="Arial, sans-serif" font-size="22" font-weight="600">Fokus: CISD + delivery shift + struktur.</text>
<defs><marker id="arrow" markerWidth="10" markerHeight="10" refX="9" refY="3" orient="auto" markerUnits="strokeWidth"><path d="M0,0 L0,6 L9,3 z" fill="#18f57a"/></marker></defs>
</svg>