<svg xmlns="http://www.w3.org/2000/svg" viewBox="0 0 800 400" style="background:#1a1a2e; font-family:sans-serif;">
  <rect width="800" height="400" fill="#1a1a2e"/>
  
  <text x="400" y="40" fill="#ffffff" font-size="22" font-weight="bold" text-anchor="middle">Market Structure Dasar</text>

  <!-- Uptrend -->
  <g transform="translate(50, 100)">
    <text x="80" y="-10" fill="#00ffaa" font-size="16" font-weight="bold">UPTREND (Bullish)</text>
    <path d="M 0 180 L 40 100 L 80 140 L 140 40 L 180 80 L 220 0" fill="none" stroke="#00ffaa" stroke-width="3"/>
    
    <circle cx="40" cy="100" r="5" fill="#ffffff"/> <text x="30" y="90" fill="#ffffff" font-size="12">HH</text>
    <circle cx="80" cy="140" r="5" fill="#ffffff"/> <text x="70" y="160" fill="#ffffff" font-size="12">HL</text>
    <circle cx="140" cy="40" r="5" fill="#ffffff"/> <text x="130" y="30" fill="#ffffff" font-size="12">HH</text>
    <circle cx="180" cy="80" r="5" fill="#ffffff"/> <text x="170" y="100" fill="#ffffff" font-size="12">HL</text>
  </g>

  <!-- Downtrend -->
  <g transform="translate(550, 100)">
    <text x="30" y="-10" fill="#ff3366" font-size="16" font-weight="bold">DOWNTREND (Bearish)</text>
    <path d="M 0 0 L 40 80 L 80 40 L 140 140 L 180 100 L 220 180" fill="none" stroke="#ff3366" stroke-width="3"/>
    
    <circle cx="40" cy="80" r="5" fill="#ffffff"/> <text x="30" y="100" fill="#ffffff" font-size="12">LL</text>
    <circle cx="80" cy="40" r="5" fill="#ffffff"/> <text x="70" y="30" fill="#ffffff" font-size="12">LH</text>
    <circle cx="140" cy="140" r="5" fill="#ffffff"/> <text x="130" y="160" fill="#ffffff" font-size="12">LL</text>
    <circle cx="180" cy="100" r="5" fill="#ffffff"/> <text x="170" y="90" fill="#ffffff" font-size="12">LH</text>
  </g>

  <!-- Ranging -->
  <g transform="translate(300, 200)">
    <text x="100" y="-20" fill="#f39c12" font-size="16" font-weight="bold">RANGING (Sideways)</text>
    <!-- Resistance Line -->
    <line x1="0" y1="20" x2="200" y2="20" stroke="#f39c12" stroke-width="2" stroke-dasharray="5 5"/>
    <!-- Support Line -->
    <line x1="0" y1="100" x2="200" y2="100" stroke="#f39c12" stroke-width="2" stroke-dasharray="5 5"/>
    
    <path d="M 0 60 L 40 20 L 80 100 L 120 20 L 160 100 L 200 60" fill="none" stroke="#ffffff" stroke-width="3"/>
    <text x="210" y="25" fill="#f39c12" font-size="12">Resistance (Equal Highs)</text>
    <text x="210" y="105" fill="#f39c12" font-size="12">Support (Equal Lows)</text>
  </g>

  <text x="400" y="370" fill="#aaaaaa" font-size="14" text-anchor="middle">HH = Higher High, HL = Higher Low | LH = Lower High, LL = Lower Low</text>
</svg>