<svg xmlns="http://www.w3.org/2000/svg" viewBox="0 0 800 400" style="background:#1a1a2e; font-family:sans-serif;">
  <rect width="800" height="400" fill="#1a1a2e"/>
  
  <text x="400" y="40" fill="#ffffff" font-size="22" font-weight="bold" text-anchor="middle">Support &amp; Resistance (Role Reversal)</text>

  <!-- Old Resistance -->
  <rect x="50" y="150" width="300" height="20" fill="#ff3366" fill-opacity="0.3" stroke="#ff3366" stroke-width="1"/>
  <text x="200" y="145" fill="#ff3366" font-size="14" text-anchor="middle">Resistance (Plafon)</text>

  <!-- Breakout -->
  <path d="M 50 250 L 120 150 L 180 250 L 250 150 L 290 200 L 330 80" fill="none" stroke="#00ffaa" stroke-width="3"/>
  <circle cx="330" cy="80" r="5" fill="#ffffff"/>
  <text x="350" y="70" fill="#ffffff" font-size="14" font-style="italic">Breakout Kuat</text>

  <!-- Old Resistance Becomes New Support (RBS) -->
  <rect x="350" y="150" width="400" height="20" fill="#00ffaa" fill-opacity="0.3" stroke="#00ffaa" stroke-width="1"/>
  <text x="550" y="145" fill="#00ffaa" font-size="14" text-anchor="middle">Resistance Becomes Support (RBS)</text>
  
  <path d="M 330 80 L 400 150 L 480 50 L 550 150 L 630 30 L 700 150" fill="none" stroke="#ffffff" stroke-width="3"/>
  
  <!-- Arrow reflections -->
  <path d="M 120 175 L 120 195" stroke="#ff3366" stroke-width="2" marker-start="url(#arrow)"/>
  <path d="M 250 175 L 250 195" stroke="#ff3366" stroke-width="2" marker-start="url(#arrow)"/>
  
  <path d="M 400 125 L 400 105" stroke="#00ffaa" stroke-width="2" marker-start="url(#arrow-up)"/>
  <path d="M 550 125 L 550 105" stroke="#00ffaa" stroke-width="2" marker-start="url(#arrow-up)"/>
  <path d="M 700 125 L 700 105" stroke="#00ffaa" stroke-width="2" marker-start="url(#arrow-up)"/>

  <!-- Markers -->
  <defs>
    <marker id="arrow" viewBox="0 0 10 10" refX="5" refY="5" markerWidth="6" markerHeight="6" orient="auto-start-reverse">
      <path d="M 0 0 L 10 5 L 0 10 z" fill="#ff3366" />
    </marker>
    <marker id="arrow-up" viewBox="0 0 10 10" refX="5" refY="5" markerWidth="6" markerHeight="6" orient="auto-start-reverse">
      <path d="M 0 0 L 10 5 L 0 10 z" fill="#00ffaa" />
    </marker>
  </defs>

  <text x="400" y="340" fill="#aaaaaa" font-size="14" text-anchor="middle">Harga memantul berkali-kali di zona (Plafon/Lantai). S&amp;R adalah ZONA karet, bukan garis tipis beton.</text>
</svg>