<svg xmlns="http://www.w3.org/2000/svg" viewBox="0 0 800 400" style="background:#1a1a2e; font-family:sans-serif;">
  <rect width="800" height="400" fill="#1a1a2e"/>
  
  <text x="400" y="40" fill="#ffffff" font-size="22" font-weight="bold" text-anchor="middle">Manajemen Risiko &amp; RRR (Risk to Reward Ratio)</text>

  <!-- Entry Point -->
  <line x1="200" y1="200" x2="600" y2="200" stroke="#ffffff" stroke-width="2" stroke-dasharray="5 5"/>
  <text x="180" y="205" fill="#ffffff" font-size="14" text-anchor="end">Harga Entry</text>

  <!-- Stop Loss Zone -->
  <rect x="350" y="200" width="100" height="50" fill="#ff3366" fill-opacity="0.3"/>
  <line x1="200" y1="250" x2="600" y2="250" stroke="#ff3366" stroke-width="2"/>
  <text x="180" y="255" fill="#ff3366" font-size="14" text-anchor="end" font-weight="bold">Stop Loss (SL)</text>
  <text x="400" y="230" fill="#ff3366" font-size="16" font-weight="bold" text-anchor="middle">Risiko: 1%</text>
  <text x="620" y="230" fill="#ff3366" font-size="14">-20 Pips</text>

  <!-- Take Profit Zone -->
  <rect x="350" y="50" width="100" height="150" fill="#00ffaa" fill-opacity="0.3"/>
  <line x1="200" y1="50" x2="600" y2="50" stroke="#00ffaa" stroke-width="2"/>
  <text x="180" y="55" fill="#00ffaa" font-size="14" text-anchor="end" font-weight="bold">Take Profit (TP)</text>
  <text x="400" y="130" fill="#00ffaa" font-size="16" font-weight="bold" text-anchor="middle">Imbalan: 3%</text>
  <text x="620" y="130" fill="#00ffaa" font-size="14">+60 Pips</text>

  <!-- Path representation -->
  <path d="M 300 280 L 350 200 L 400 230 L 450 150 L 500 180 L 550 50" fill="none" stroke="#ffffff" stroke-width="3"/>
  <circle cx="550" cy="50" r="5" fill="#00ffaa"/>

  <rect x="250" y="320" width="300" height="50" rx="10" fill="#2d2d44" stroke="#ffffff" stroke-width="1"/>
  <text x="400" y="350" fill="#ffffff" font-size="16" font-weight="bold" text-anchor="middle">RRR = 1 : 3</text>
</svg>