<svg xmlns="http://www.w3.org/2000/svg" viewBox="0 0 800 400" width="800" height="400">
  <rect width="800" height="400" fill="#1a1a2e"/>
  <text x="400" y="50" font-family="Arial, sans-serif" font-size="24" font-weight="bold" fill="#ffffff" text-anchor="middle">WEEKLY EVALUATION DASHBOARD</text>
  
  <rect x="50" y="80" width="300" height="250" rx="10" fill="#2a2a4e"/>
  <text x="200" y="110" font-family="Arial, sans-serif" font-size="18" fill="#00ffaa" text-anchor="middle">Performance Metrics</text>
  <rect x="80" y="140" width="40" height="150" fill="#00ffaa"/>
  <rect x="140" y="190" width="40" height="100" fill="#ff3366"/>
  <rect x="200" y="110" width="40" height="180" fill="#00ffaa"/>
  <rect x="260" y="240" width="40" height="50" fill="#ff3366"/>
  
  <rect x="400" y="80" width="350" height="250" rx="10" fill="#2a2a4e"/>
  <text x="575" y="110" font-family="Arial, sans-serif" font-size="18" fill="#ffffff" text-anchor="middle">Evaluation Checklist</text>
  <rect x="430" y="140" width="20" height="20" rx="3" fill="#00ffaa"/>
  <text x="465" y="155" font-family="Arial, sans-serif" font-size="16" fill="#b0b0b0">Review Trading Journal</text>
  <rect x="430" y="180" width="20" height="20" rx="3" fill="#00ffaa"/>
  <text x="465" y="195" font-family="Arial, sans-serif" font-size="16" fill="#b0b0b0">Analyze Win / Loss Setups</text>
  <rect x="430" y="220" width="20" height="20" rx="3" fill="#00ffaa"/>
  <text x="465" y="235" font-family="Arial, sans-serif" font-size="16" fill="#b0b0b0">Identify Emotional Triggers</text>
  <rect x="430" y="260" width="20" height="20" rx="3" fill="#ff3366"/>
  <text x="465" y="275" font-family="Arial, sans-serif" font-size="16" fill="#b0b0b0">Create Action Plan</text>
</svg>
