<svg xmlns="http://www.w3.org/2000/svg" viewBox="0 0 800 400" width="800" height="400">
  <rect width="800" height="400" fill="#1a1a2e"/>
  <line x1="400" y1="50" x2="400" y2="350" stroke="#ffffff" stroke-width="2" stroke-dasharray="5,5"/>
  
  <text x="200" y="50" font-family="Arial, sans-serif" font-size="20" font-weight="bold" fill="#ff3366" text-anchor="middle">Gejala Negatif (Overtrading/Emosi)</text>
  <path d="M 50 200 L 100 150 L 120 250 L 150 100 L 180 300 L 220 120 L 250 250 L 300 180 L 350 280" fill="none" stroke="#ff3366" stroke-width="3"/>
  <circle cx="100" cy="150" r="5" fill="#00ffaa"/>
  <circle cx="120" cy="250" r="5" fill="#ff3366"/>
  <circle cx="150" cy="100" r="5" fill="#00ffaa"/>
  <circle cx="180" cy="300" r="5" fill="#ff3366"/>
  <circle cx="220" cy="120" r="5" fill="#00ffaa"/>
  <circle cx="250" cy="250" r="5" fill="#ff3366"/>
  <circle cx="300" cy="180" r="5" fill="#00ffaa"/>
  <text x="200" y="320" font-family="Arial, sans-serif" font-size="14" fill="#b0b0b0" text-anchor="middle">Terlalu banyak posisi acak, detak jantung naik</text>

  <text x="600" y="50" font-family="Arial, sans-serif" font-size="20" font-weight="bold" fill="#00ffaa" text-anchor="middle">Chart Sehat (Disiplin)</text>
  <path d="M 450 250 L 500 250 L 550 150 L 600 150 L 650 100 L 750 100" fill="none" stroke="#b0b0b0" stroke-width="3"/>
  <line x1="500" y1="250" x2="550" y2="150" stroke="#00ffaa" stroke-width="5"/>
  <text x="525" y="190" font-family="Arial, sans-serif" font-size="14" fill="#ffffff">Valid Setup</text>
  <circle cx="500" cy="250" r="6" fill="#00ffaa"/>
  <circle cx="650" cy="100" r="6" fill="#ff3366"/>
  <text x="600" y="320" font-family="Arial, sans-serif" font-size="14" fill="#b0b0b0" text-anchor="middle">Satu eksekusi bersih sesuai plan</text>
</svg>
