<svg xmlns="http://www.w3.org/2000/svg" viewBox="0 0 800 400" width="800" height="400">
  <rect width="800" height="400" fill="#1a1a2e"/>
  <text x="400" y="40" font-family="Arial, sans-serif" font-size="24" font-weight="bold" fill="#ffffff" text-anchor="middle">Latihan Kontrol &amp; Disiplin</text>
  
  <!-- Scale -->
  <line x1="400" y1="100" x2="400" y2="350" stroke="#b0b0b0" stroke-width="4"/>
  <path d="M 380 350 L 420 350 L 400 320 Z" fill="#b0b0b0"/>
  <line x1="200" y1="150" x2="600" y2="150" stroke="#b0b0b0" stroke-width="6"/>
  <circle cx="400" cy="150" r="8" fill="#ffffff"/>
  
  <line x1="200" y1="150" x2="200" y2="250" stroke="#b0b0b0" stroke-width="2"/>
  <line x1="600" y1="150" x2="600" y2="250" stroke="#b0b0b0" stroke-width="2"/>
  
  <circle cx="200" cy="270" r="40" fill="#ff3366"/>
  <text x="200" y="275" font-family="Arial, sans-serif" font-size="16" fill="#ffffff" text-anchor="middle">Emosi</text>
  
  <circle cx="600" cy="270" r="40" fill="#00ffaa"/>
  <text x="600" y="275" font-family="Arial, sans-serif" font-size="16" fill="#1a1a2e" font-weight="bold" text-anchor="middle">Logika</text>

  <!-- Sticky Note -->
  <rect x="50" y="80" width="150" height="150" fill="#ffdd55" transform="rotate(-10 50 80)"/>
  <text x="120" y="130" font-family="Arial, sans-serif" font-size="14" font-weight="bold" fill="#1a1a2e" text-anchor="middle" transform="rotate(-10 120 130)">ATURAN</text>
  <text x="120" y="150" font-family="Arial, sans-serif" font-size="12" fill="#1a1a2e" text-anchor="middle" transform="rotate(-10 120 150)">Max 2 Loss/Hari</text>
  <text x="120" y="170" font-family="Arial, sans-serif" font-size="12" fill="#1a1a2e" text-anchor="middle" transform="rotate(-10 120 170)">Tutup Platform!</text>
</svg>
