<svg xmlns="http://www.w3.org/2000/svg" viewBox="0 0 800 500">
  <rect width="800" height="500" fill="#1a1a2e"/>
  
  <!-- Trophy Graphic -->
  <g transform="translate(400, 150)">
    <path d="M -60,-50 C -100,-50 -100,20 -50,40 L -50,10 L -70,0 C -75,-10 -75,-30 -60,-35 Z" fill="#f39c12"/>
    <path d="M 60,-50 C 100,-50 100,20 50,40 L 50,10 L 70,0 C 75,-10 75,-30 60,-35 Z" fill="#f39c12"/>
    
    <polygon points="-50,-50 50,-50 30,50 -30,50" fill="#f1c40f"/>
    <rect x="-15" y="50" width="30" height="40" fill="#e67e22"/>
    <path d="M -40,90 L 40,90 L 50,110 L -50,110 Z" fill="#d35400"/>
    
    <text x="0" y="0" fill="#1a1a2e" font-family="Arial" font-size="30" font-weight="bold" text-anchor="middle">49</text>
  </g>
  
  <text x="400" y="290" fill="#00ffaa" font-family="Arial" font-size="24" font-weight="bold" text-anchor="middle">Level Selesai: Manajer Kekayaan!</text>
  <text x="400" y="315" fill="#ffffff" font-family="Arial" font-size="14" text-anchor="middle">Multiple Income Streams &amp; Manajemen Portofolio</text>
  
  <!-- Checklists -->
  <g transform="translate(150, 350)">
    <rect x="0" y="0" width="500" height="120" rx="10" fill="#2a2a4e" stroke="#00ffaa" stroke-width="2"/>
    
    <g transform="translate(20, 25)">
      <circle cx="0" cy="-5" r="8" fill="#00ffaa"/>
      <path d="M -3,-5 L -1,-2 L 4,-8" fill="none" stroke="#1a1a2e" stroke-width="2"/>
      <text x="20" y="0" fill="#ffffff" font-family="Arial" font-size="14">Paham Diversifikasi &amp; Sistem 3 Ember (Safety, Growth, Trading)</text>
    </g>

    <g transform="translate(20, 55)">
      <circle cx="0" cy="-5" r="8" fill="#00ffaa"/>
      <path d="M -3,-5 L -1,-2 L 4,-8" fill="none" stroke="#1a1a2e" stroke-width="2"/>
      <text x="20" y="0" fill="#ffffff" font-family="Arial" font-size="14">Rutin Withdraw profit untuk dibelikan Aset Pasif</text>
    </g>

    <g transform="translate(20, 85)">
      <circle cx="0" cy="-5" r="8" fill="#00ffaa"/>
      <path d="M -3,-5 L -1,-2 L 4,-8" fill="none" stroke="#1a1a2e" stroke-width="2"/>
      <text x="20" y="0" fill="#ffffff" font-family="Arial" font-size="14">Memiliki "Stop Loss" kehidupan (Dana Darurat &amp; Asuransi)</text>
    </g>
  </g>
</svg>
