<svg xmlns="http://www.w3.org/2000/svg" viewBox="0 0 800 400" width="100%" height="100%" style="background-color: #1a1a2e; font-family: sans-serif;">
  <defs>
    <linearGradient id="obZone" x1="0%" y1="0%" x2="0%" y2="100%">
      <stop offset="0%" stop-color="#00ffaa" stop-opacity="0.2"/>
      <stop offset="100%" stop-color="#00ffaa" stop-opacity="0.05"/>
    </linearGradient>
  </defs>

  <text x="400" y="40" fill="#ffffff" font-size="24" font-weight="bold" text-anchor="middle">Transisi: Failed OB menjadi Breaker</text>
  
  <!-- OB Zone -->
  <rect x="150" y="150" width="550" height="50" fill="url(#obZone)" stroke="#00ffaa" stroke-width="2" stroke-dasharray="5,5" rx="4" />
  <text x="300" y="140" fill="#00ffaa" font-size="14" font-weight="bold">Bearish OB (Awalnya Resistance)</text>
  <text x="550" y="140" fill="#00ffaa" font-size="14" font-weight="bold">Kini Menjadi Bullish Breaker (Support)</text>

  <!-- Initial downtrend and OB creation -->
  <path d="M 100 80 L 150 180 L 250 100" fill="none" stroke="#8b8c9a" stroke-width="3" />
  
  <!-- The Failure (Impulsive Break) -->
  <path d="M 250 100 L 350 350 L 450 80" fill="none" stroke="#ffffff" stroke-width="3" />
  
  <line x1="390" y1="200" x2="410" y2="200" stroke="#00ffaa" stroke-width="4" />
  <line x1="385" y1="180" x2="415" y2="180" stroke="#00ffaa" stroke-width="4" />
  <line x1="380" y1="160" x2="420" y2="160" stroke="#00ffaa" stroke-width="4" />
  <line x1="385" y1="140" x2="415" y2="140" stroke="#00ffaa" stroke-width="4" />
  
  <text x="440" y="180" fill="#ffffff" font-size="12" font-weight="bold">MOMENTUM BREAK (Failed OB)</text>
  
  <!-- Pullback / Mitigation -->
  <path d="M 450 80 L 550 150" fill="none" stroke="#8b8c9a" stroke-width="3" stroke-dasharray="4,4" />
  
  <!-- The Bounce -->
  <path d="M 550 150 L 700 60" fill="none" stroke="#00ffaa" stroke-width="4" />
  
  <!-- Entry icon -->
  <circle cx="550" cy="150" r="8" fill="#00ffaa" stroke="#ffffff" stroke-width="2"/>
  <text x="550" y="195" fill="#ffffff" font-size="14" font-weight="bold" text-anchor="middle">BUY ENTRY</text>
  <text x="550" y="215" fill="#8b8c9a" font-size="12" text-anchor="middle">(Institusi Mitigasi Posisi)</text>
</svg>
