<svg xmlns="http://www.w3.org/2000/svg" viewBox="0 0 800 400" width="100%" height="100%" style="background-color: #1a1a2e; font-family: sans-serif;">
  <defs>
    <linearGradient id="csZone" x1="0%" y1="0%" x2="0%" y2="100%">
      <stop offset="0%" stop-color="#ff3366" stop-opacity="0.2"/>
      <stop offset="100%" stop-color="#ff3366" stop-opacity="0.05"/>
    </linearGradient>
  </defs>

  <text x="400" y="30" fill="#ffffff" font-size="22" font-weight="bold" text-anchor="middle">Case Study: Bearish Breaker Setup</text>
  
  <!-- Liquidity Pool (Equal Highs) -->
  <line x1="100" y1="150" x2="350" y2="150" stroke="#00ffaa" stroke-width="2" stroke-dasharray="5,5"/>
  <text x="225" y="140" fill="#00ffaa" font-size="12" text-anchor="middle">$$$ Buy Stops (Retail Resistance) $$$</text>
  
  <!-- Consolidation -->
  <path d="M 50 250 L 100 150 L 150 220 L 200 150 L 250 200" fill="none" stroke="#8b8c9a" stroke-width="2"/>
  
  <!-- The Sweep (Manipulasi) -->
  <path d="M 250 200 L 320 80" fill="none" stroke="#00ffaa" stroke-width="3"/>
  <text x="330" y="70" fill="#00ffaa" font-size="12" font-weight="bold">1. Liquidity Sweep</text>
  
  <!-- The Dump (CHoCH) -->
  <path d="M 320 80 L 400 320" fill="none" stroke="#ff3366" stroke-width="4"/>
  <text x="410" y="300" fill="#ff3366" font-size="12" font-weight="bold">2. Strong BOS/CHoCH</text>
  
  <!-- Bearish Breaker Zone Formation -->
  <rect x="250" y="160" width="400" height="50" fill="url(#csZone)" stroke="#ff3366" stroke-width="2" rx="4"/>
  <text x="450" y="190" fill="#ff3366" font-size="14" font-weight="bold">3. Bearish Breaker M15</text>

  <!-- Pullback -->
  <path d="M 400 320 L 480 260 L 450 240 L 520 160" fill="none" stroke="#8b8c9a" stroke-width="2" stroke-dasharray="4,4"/>
  <text x="530" y="145" fill="#8b8c9a" font-size="12">4. Pullback (Mitigasi)</text>

  <!-- Confirmation and Drop -->
  <circle cx="520" cy="160" r="6" fill="#ff3366" stroke="#ffffff" stroke-width="2"/>
  <path d="M 520 160 L 550 200 L 530 180 L 650 380" fill="none" stroke="#ff3366" stroke-width="5"/>
  
  <text x="590" y="240" fill="#ffffff" font-size="12" font-weight="bold">5. Entry M3 CHoCH</text>
  
  <!-- Target -->
  <line x1="600" y1="380" x2="750" y2="380" stroke="#00ffaa" stroke-width="2" stroke-dasharray="5,5"/>
  <text x="675" y="375" fill="#00ffaa" font-size="14" font-weight="bold" text-anchor="middle">TARGET: TP (1:5 RR)</text>

</svg>
