<svg xmlns="http://www.w3.org/2000/svg" viewBox="0 0 800 600" width="800" height="600">
  <rect width="100%" height="100%" fill="#1a1a2e" />
  <rect x="50" y="50" width="320" height="500" fill="#24243e" rx="15" />
  <rect x="430" y="50" width="320" height="500" fill="#24243e" rx="15" />
  
  <!-- Bad Chart -->
  <text x="210" y="90" font-family="Arial" font-size="22" fill="#ff3366" text-anchor="middle" font-weight="bold">TANPA RUTINITAS</text>
  <polyline points="70,400 120,250 150,450 200,150 250,480 300,200 350,300" fill="none" stroke="#ff3366" stroke-width="4" />
  <circle cx="120" cy="250" r="8" fill="#ffcc00" />
  <circle cx="150" cy="450" r="8" fill="#ffcc00" />
  <circle cx="200" cy="150" r="8" fill="#ffcc00" />
  <circle cx="250" cy="480" r="8" fill="#ffcc00" />
  <circle cx="300" cy="200" r="8" fill="#ffcc00" />
  <text x="210" y="520" font-family="Arial" font-size="16" fill="#aaaaaa" text-anchor="middle">Overtrading &amp; Emosional</text>

  <!-- Good Chart -->
  <text x="590" y="90" font-family="Arial" font-size="22" fill="#00ffaa" text-anchor="middle" font-weight="bold">DENGAN RUTINITAS</text>
  <polyline points="450,400 500,350 550,420 650,200 700,220" fill="none" stroke="#00ffaa" stroke-width="4" />
  <line x1="430" y1="420" x2="750" y2="420" stroke="#00aaff" stroke-width="2" stroke-dasharray="5,5" />
  <text x="690" y="410" font-family="Arial" font-size="14" fill="#00aaff">POI H1</text>
  <circle cx="550" cy="420" r="10" fill="#00ffaa" stroke="#ffffff" stroke-width="3" />
  <text x="590" y="520" font-family="Arial" font-size="16" fill="#aaaaaa" text-anchor="middle">Disiplin &amp; Terstruktur</text>
  
  <line x1="400" y1="50" x2="400" y2="550" stroke="#33334e" stroke-width="4" />
</svg>