<svg xmlns="http://www.w3.org/2000/svg" viewBox="0 0 800 600" width="800" height="600">
  <rect width="100%" height="100%" fill="#1a1a2e" />
  <rect x="250" y="80" width="300" height="440" fill="#24243e" rx="10" stroke="#33334e" stroke-width="5" />
  
  <text x="400" y="140" font-family="Arial" font-size="28" fill="#ffffff" text-anchor="middle" font-weight="bold">JADWAL TRADING</text>
  
  <rect x="280" y="180" width="30" height="30" fill="none" stroke="#00ffaa" stroke-width="3" />
  <polyline points="285,195 292,205 305,185" fill="none" stroke="#00ffaa" stroke-width="4" />
  <text x="330" y="202" font-family="Arial" font-size="20" fill="#cccccc">Pre-Market (Selesai)</text>
  
  <rect x="280" y="250" width="30" height="30" fill="none" stroke="#ff3366" stroke-width="3" />
  <line x1="285" y1="255" x2="305" y2="275" stroke="#ff3366" stroke-width="4" />
  <line x1="305" y1="255" x2="285" y2="275" stroke="#ff3366" stroke-width="4" />
  <text x="330" y="272" font-family="Arial" font-size="20" fill="#cccccc">Tunggu POI (Langgar!)</text>
  <text x="330" y="295" font-family="Arial" font-size="14" fill="#ff3366" font-style="italic">"Pengecualian, gatel pengen masuk"</text>

  <rect x="280" y="340" width="30" height="30" fill="none" stroke="#ff3366" stroke-width="3" />
  <line x1="285" y1="345" x2="305" y2="365" stroke="#ff3366" stroke-width="4" />
  <line x1="305" y1="345" x2="285" y2="365" stroke="#ff3366" stroke-width="4" />
  <text x="330" y="362" font-family="Arial" font-size="20" fill="#cccccc">Isi Jurnal (Lewat!)</text>
  <text x="330" y="385" font-family="Arial" font-size="14" fill="#ff3366" font-style="italic">"Malas, habis loss besar"</text>
  
  <line x1="280" y1="460" x2="520" y2="460" stroke="#33334e" stroke-width="3" />
  <text x="400" y="490" font-family="Arial" font-size="18" fill="#ffcc00" text-anchor="middle">Kesalahan Umum: Ekspektasi &amp; Pengecualian</text>
</svg>