<svg xmlns="http://www.w3.org/2000/svg" viewBox="0 0 800 600" width="800" height="600">
  <rect width="100%" height="100%" fill="#1a1a2e" />
  
  <line x1="100" y1="480" x2="700" y2="480" stroke="#ffffff" stroke-width="4" />
  <line x1="100" y1="480" x2="100" y2="100" stroke="#ffffff" stroke-width="4" />
  
  <path d="M 120 300 Q 180 150 240 400 T 360 450" fill="none" stroke="#ff3366" stroke-width="5" stroke-dasharray="10,5" />
  <text x="240" y="430" font-family="Arial" font-size="18" fill="#ff3366" text-anchor="middle">Fase 1: Tanpa Rutinitas</text>
  
  <rect x="380" y="100" width="4" height="380" fill="#aaaaaa" />
  <text x="380" y="80" font-family="Arial" font-size="16" fill="#aaaaaa" text-anchor="middle">Intervensi Rutinitas</text>
  
  <path d="M 380 450 C 450 450 500 350 550 300 S 650 200 700 150" fill="none" stroke="#00ffaa" stroke-width="5" />
  <circle cx="550" cy="300" r="8" fill="#00ffaa" />
  <circle cx="700" cy="150" r="8" fill="#00ffaa" />
  <text x="580" y="230" font-family="Arial" font-size="18" fill="#00ffaa" text-anchor="middle">Fase 3: Konsisten</text>
  
  <rect x="520" y="520" width="20" height="20" fill="#00ffaa" />
  <text x="550" y="535" font-family="Arial" font-size="16" fill="#ffffff">Pertumbuhan Modal Stabil</text>
  
  <rect x="150" y="520" width="20" height="20" fill="#ff3366" />
  <text x="180" y="535" font-family="Arial" font-size="16" fill="#ffffff">Siklus Boom &amp; Bust</text>
</svg>