<svg xmlns="http://www.w3.org/2000/svg" viewBox="0 0 800 400" width="800" height="400">
  <rect width="800" height="400" fill="#1a1a2e" />
  
  <rect x="200" y="40" width="400" height="320" rx="10" fill="#2a2a4e" stroke="#fff" stroke-width="2" />
  <rect x="350" y="25" width="100" height="30" rx="5" fill="#555" stroke="#fff" stroke-width="2" />
  
  <text x="400" y="90" fill="#00ffaa" font-family="Arial" font-size="22" font-weight="bold" text-anchor="middle">Checklist Anti-Overconfidence</text>
  
  <rect x="230" y="130" width="20" height="20" fill="#1a1a2e" stroke="#00ffaa" stroke-width="2" />
  <path d="M 235 140 L 240 145 L 255 125" fill="none" stroke="#00ffaa" stroke-width="3" />
  <text x="270" y="145" fill="#fff" font-family="Arial" font-size="16">Target Profit Harian/Mingguan Tercapai</text>
  
  <rect x="230" y="180" width="20" height="20" fill="#1a1a2e" stroke="#00ffaa" stroke-width="2" />
  <path d="M 235 190 L 240 195 L 255 175" fill="none" stroke="#00ffaa" stroke-width="3" />
  <text x="270" y="195" fill="#fff" font-family="Arial" font-size="16">Sudah melakukan Cooling Down (Jeda layar)</text>
  
  <rect x="230" y="230" width="20" height="20" fill="#1a1a2e" stroke="#00ffaa" stroke-width="2" />
  <path d="M 235 240 L 240 245 L 255 225" fill="none" stroke="#00ffaa" stroke-width="3" />
  <text x="270" y="245" fill="#fff" font-family="Arial" font-size="16">Risiko per trade tetap statis (1-2%)</text>
  
  <rect x="230" y="280" width="20" height="20" fill="#1a1a2e" stroke="#00ffaa" stroke-width="2" />
  <path d="M 235 290 L 240 295 L 255 275" fill="none" stroke="#00ffaa" stroke-width="3" />
  <text x="270" y="295" fill="#fff" font-family="Arial" font-size="16">Stop Loss tidak digeser atau dicopot</text>
</svg>
